<svg xmlns="http://www.w3.org/2000/svg" viewBox="0 0 16 16" width="16" height="16">
  <path d="M16 8s-3-5.5-8-5.5S0 8 0 8s3 5.5 8 5.5S16 8 16 8zM1.173 8a13.133 13.133 0 0 1 1.66-2.043C4.12 4.662 5.881 4 8 4c2.12 0 3.879.662 5.168 1.957.348.348.66.72.925 1.117C13.254 5.992 10.915 4.5 8 4.5c-2.915 0-5.254 1.492-6.093 2.574A12.04 12.04 0 0 0 1.173 8zM8 10c-1.34 0-2.61.527-3.543 1.487A11.96 11.96 0 0 0 8 13.5c1.34 0 2.61-.527 3.543-1.487A11.96 11.96 0 0 0 8 10zm-4.5-1a2 2 0 1 1 4 0 2 2 0 0 1-4 0z" fill="currentColor"/>
</svg>
